<svg width="481" height="65" viewBox="0 0 481 65" xmlns="http://www.w3.org/2000/svg" class="railroad-diagram">
  <style>
    .endpoint { fill: #1976d2; stroke: #1976d2; stroke-width: 2; r: 8; }
    .track { fill: none; stroke: #1976d2; stroke-width: 6; stroke-linecap: round; stroke-linejoin: round; }
    .textbox.terminal { fill: #e3f2fd; stroke: #1976d2; stroke-width: 2; rx: 4; ry: 4; }
    .textbox.nonterminal { fill: #fff3e0; stroke: #f57c00; stroke-width: 2; rx: 4; ry: 4; }
    .textbox-text.terminal { font-family: 'Courier New', monospace; font-size: 14px; fill: #1976d2; font-weight: bold; }
    .textbox-text.nonterminal { font-family: 'Courier New', monospace; font-size: 14px; fill: #f57c00; font-weight: bold; }
  </style>
  <circle cx="16" cy="32" class="endpoint"/>
  <g transform="translate(48, 16)" class="main-expression">
    <g transform="translate(0, 0)" class="sequence-child" data-index="0">
      <g class="textbox-expression" data-type="nonterminal" data-text="param-name">
        <rect x="16" y="0" width="96" height="32" class="textbox nonterminal"/>
        <text x="64" y="16" text-anchor="middle" dominant-baseline="middle" class="textbox-text nonterminal">param-name</text>
        <path d="M 0 16 L 16 16" class="track"/>
        <path d="M 112 16 L 128 16" class="track"/>
      </g>
    </g>
    <path d="M 128 16 L 160 16" class="track"/>
    <g transform="translate(160, 0)" class="sequence-child" data-index="1">
      <g class="textbox-expression" data-type="terminal" data-text="&quot;=&quot;">
        <rect x="16" y="0" width="32" height="32" class="textbox terminal"/>
        <text x="32" y="16" text-anchor="middle" dominant-baseline="middle" class="textbox-text terminal">"="</text>
        <path d="M 0 16 L 16 16" class="track"/>
        <path d="M 48 16 L 64 16" class="track"/>
      </g>
    </g>
    <path d="M 224 16 L 256 16" class="track"/>
    <g transform="translate(256, 0)" class="sequence-child" data-index="2">
      <g class="textbox-expression" data-type="nonterminal" data-text="param-value">
        <rect x="16" y="0" width="96" height="32" class="textbox nonterminal"/>
        <text x="64" y="16" text-anchor="middle" dominant-baseline="middle" class="textbox-text nonterminal">param-value</text>
        <path d="M 0 16 L 16 16" class="track"/>
        <path d="M 112 16 L 128 16" class="track"/>
      </g>
    </g>
  </g>
  <circle cx="464" cy="32" class="endpoint"/>
  <path d="M 16 32 L 48 32" class="track"/>
  <path d="M 432 32 L 464 32" class="track"/>
</svg>